<svg width="1515" height="1515" viewBox="0 0 1515 1515" fill="none" xmlns="http://www.w3.org/2000/svg">
<path d="M1515 0H3V1515H1515V0Z" fill="#121212"/>
<mask id="mask0_48_54" style="mask-type:alpha" maskUnits="userSpaceOnUse" x="0" y="0" width="1515" height="1515">
<path d="M1515 0H0V1515H1515V0Z" fill="#121212"/>
</mask>
<g mask="url(#mask0_48_54)">
<path fill-rule="evenodd" clip-rule="evenodd" d="M123.096 1016.82C193.689 953.79 272.674 891.858 354.859 835.106C347.464 853.381 336.534 871.448 322.564 889.295C277.369 947.028 203.591 996.905 133.061 1028.52C119.345 1034.66 106.21 1039.91 93.9111 1044.29C102.16 1036.03 111.822 1026.89 123.096 1016.82ZM12.333 929.052C106.91 844.605 216.792 761.005 331.303 687.572C323.083 677.346 315.175 670.681 308.287 666.345C297.39 659.484 285.533 656.169 270.474 656.042C235.749 655.747 184.157 672.667 118.312 712.955C-10.3833 791.7 -148.05 931.159 -235.894 1037.87L-361 965.003C-269.527 853.882 -120.328 700.69 28.7985 609.444C101.864 564.737 186.922 527.325 272.011 528.048C316.859 528.429 360.699 539.46 399.47 563.869C420.788 577.291 439.271 593.925 455.214 613.244C534.833 568.813 614.835 530.689 691.806 501.849C805.672 459.187 922.358 433.221 1025.01 444.733C1077.74 450.645 1127.81 466.603 1170.44 495.901C1213.04 525.195 1244.16 565.033 1264.2 613.359C1284.1 661.362 1311.91 680.174 1337.99 688.334C1367.81 697.661 1409.77 697.489 1464.02 684.367C1573.1 657.984 1695.71 588.061 1776.02 529.188L1876 625.686C1788.29 689.98 1645.91 773.557 1506.08 807.382C1435.87 824.364 1357.42 830.974 1284.95 808.306C1208.77 784.471 1152.45 732.512 1120.52 655.515C1108.16 625.716 1091.6 607.023 1074.14 595.015C1056.67 583.014 1034.24 574.9 1004.9 571.61C943.425 564.716 857.712 579.812 753.723 618.775C676.965 647.534 595.369 687.34 513.684 734.462C530.299 818.087 499.621 895.862 449.657 959.688C386.982 1039.75 291.24 1102.66 204.62 1141.48C161.053 1161.01 116.805 1175.8 76.8548 1183.32C56.9097 1187.07 35.935 1189.42 15.4656 1188.82C-4.23104 1188.25 -29.4082 1184.78 -52.4657 1172.31C-78.3919 1158.28 -95.4351 1136.1 -99.8593 1109.91C-103.8 1086.58 -97.0599 1064.69 -88.4913 1047.09C-71.4788 1012.13 -36.6542 972.794 12.333 929.052ZM19.05 1060.78C19.0559 1060.78 19.2093 1060.79 19.497 1060.83C19.1879 1060.81 19.0452 1060.79 19.05 1060.78ZM50.8704 1099.14C50.8799 1099.11 50.8918 1099.06 50.9037 1099C50.8811 1099.08 50.8657 1099.13 50.8562 1099.17C50.8478 1099.2 50.8466 1099.22 50.8466 1099.22C50.849 1099.22 50.8573 1099.19 50.8704 1099.14Z" fill="url(#paint0_linear_48_54)"/>
</g>
<defs>
<linearGradient id="paint0_linear_48_54" x1="184.5" y1="1189" x2="1036.5" y2="559.5" gradientUnits="userSpaceOnUse">
<stop stop-color="#0040FF"/>
<stop offset="1" stop-color="#0040FF" stop-opacity="0"/>
</linearGradient>
</defs>
</svg>
